<svg width="1079" height="479" viewBox="0 0 1079 479" fill="none" xmlns="http://www.w3.org/2000/svg">
<path d="M851.4 3.3C843.9 10.1 840.2 13.1 837.2 14.8C835.4 15.7 831.6 18.4 828.6 20.8C825.6 23.2 821.8 25.7 820.1 26.4C818.4 27.1 815.9 28.9 814.6 30.4C813.2 31.8 811.6 33 810.9 33C810.2 33 807.7 34.5 805.2 36.4C802.8 38.3 799.9 40.1 798.8 40.4C797.7 40.8 793.9 43.5 790.5 46.5C787 49.6 782 53.2 779.5 54.7C777 56.1 773.7 58.6 772.1 60.1C770.6 61.6 768.2 63.1 766.8 63.5C765.4 63.8 763.1 65.2 761.7 66.6C760.2 67.9 757.2 69.9 755 71C752.8 72.1 749.2 74.6 747.1 76.6C744.9 78.6 741.4 81.1 739.2 82.3C737 83.4 734.1 85.4 732.8 86.6C731.4 87.9 728.2 90.2 725.6 91.6C723.1 93.1 719.9 95.4 718.5 96.8C717.2 98.1 714.7 99.9 713 100.7C711.4 101.6 707.6 104 704.6 106.1C701.6 108.3 698.7 110 698.1 110C697.4 110 695.4 111.5 693.5 113.3C691.6 115.2 688 117.8 685.5 119.3C683 120.7 678.6 123.9 675.7 126.4C672.7 129 669.9 131 669.4 131C668.8 131 666.3 132.6 663.9 134.4C661.4 136.3 657.4 138.9 654.9 140C652.5 141.2 650.3 142.6 649.9 143.1C649.1 144.5 644.9 144.1 643.5 142.5C642.8 141.7 641.6 141 640.8 141C640 141 636.6 138.7 633.2 136C629.8 133.2 626.5 131 625.9 131C625.3 131 623.5 129.8 621.9 128.4C620.3 127 617.4 125 615.3 124C613.3 122.9 609 119.7 605.8 116.9C602.6 114.1 598.6 111.2 597 110.5C595.3 109.8 592.7 108 591.2 106.6C589.7 105.2 588 104 587.4 104C586.9 104 586.5 103.6 586.5 103.2C586.5 102.7 585 101.7 583.3 100.8C579 98.8 560.2 83.9 558.1 80.9C555.5 77.1 556.1 76.7 562.9 77.5C569.9 78.2 574.8 76.6 579.2 71.8C580.5 70.6 585.4 65.4 590.2 60.4C595.1 55.4 601.6 48.1 604.9 44.2C608.1 40.3 612.9 35.1 615.5 32.8C618.1 30.4 622.4 25.8 625.1 22.5C627.7 19.2 630.2 16.3 630.5 16C635 12 638.1 4.60001 633.8 8.20001C632 9.70001 628.8 11.5 625.7 13C624.4 13.5 622.1 15.2 620.6 16.8C614.3 23 610.5 26 608.3 26.5C607 26.8 604 28.9 601.5 31.2C599 33.4 595.7 35.8 594 36.6C592.4 37.3 589.4 39.3 587.5 41C583.2 44.8 575.9 50 574.8 50C574.4 50 572.6 51.3 570.9 52.9C569.3 54.5 566.8 56.1 565.5 56.5C562.1 57.6 557.5 61.1 557.5 62.6C557.5 63.3 557 64 556.3 64.2C555.7 64.4 554.9 66.8 554.6 69.6L554 74.5L550 74.2C547.8 74 544.9 73.1 543.5 72.2C542.1 71.3 539 69.5 536.5 68.2C534 66.9 531.8 65.5 531.5 65.1C531.2 64.6 529.8 63.7 528.3 62.9C523.5 60.3 513.3 53.5 509.6 50.4C507.6 48.7 504 46.1 501.5 44.7C499 43.2 494.5 40 491.5 37.5C484.2 31.5 468.3 20 467.2 20C466.7 20 464.2 18.4 461.7 16.5C444 3.00002 440.5 1 440.5 4.40001C440.5 6 442.6 8.20001 456.5 21C465.1 28.9 475.7 39.4 487.3 51.5C489.9 54.2 496.3 60.5 501.5 65.5C506.7 70.4 513.6 77.9 516.8 82C520.1 86.1 536.3 103 552.9 119.5C569.4 136 588.4 155.1 595.1 162C601.7 168.9 612.3 179.6 618.6 185.8C624.9 192 633.4 200.6 637.5 205C641.6 209.4 645.8 213.3 646.8 213.6C648.5 214.2 657.2 206 675.6 186.5C678.8 183.2 690.9 171.3 702.6 160C714.3 148.7 726.2 137.1 728.9 134.1C731.7 131.1 741.4 121.5 750.5 112.6C759.6 103.8 776.9 86.7 789 74.6C801.1 62.6 812.5 51.6 814.5 50.1C816.4 48.7 819.1 46.1 820.4 44.5C821.8 42.8 827.4 37.2 832.9 32C853.3 12.6 862.5 3.10001 862.5 1.60001C862.5 0.400009 861.5 0 858.8 0C856 0 854.1 0.900009 851.4 3.3Z" fill="#C9A96E"/>
<path d="M226.5 4.39995C226.5 5.19995 228.4 7.39995 230.6 9.19995C235.2 12.8 238.4 15.8999 249.5 27.3999C253.6 31.7 264.2 42 272.9 50.3C281.7 58.7 294.1 70.8999 300.4 77.5C314.6 92.2 324 101.5 337.3 114.3C343 119.8 348.3 125.4 349.3 126.8C350.2 128.3 356.6 134.9 363.4 141.5C370.1 148.1 380.7 158.6 386.9 164.9C401.9 180.4 422.4 201.6 427.3 206.7C434.2 214.1 434.9 213.8 454.3 193.8C475.2 172.2 496.8 150.7 516.3 131.9C533.5 115.5 533.9 114.6 528.6 106.8C524.7 101 521.9 98.6 516.1 95.9C511.4 93.7 511.1 93.7 508.3 95.3C506.7 96.2 504.6 97 503.7 97C502.8 97 499.8 99.2 497 101.9C494.3 104.6 490.4 107.6 488.4 108.7C486.4 109.7 483.1 112 480.9 113.7C478.8 115.3 476 117 474.9 117.4C473.7 117.8 470.2 120.2 467.2 122.8C461.9 127.2 452.7 133.6 446.7 137C445.2 137.9 442.1 139.8 439.8 141.3C435 144.3 430.9 144.7 428 142.5C425.1 140.2 413.6 132.5 408.8 129.6C405 127.2 388.9 115.6 385.5 112.8C378.5 106.9 374.6 104 373.8 104C373.3 104 371.1 102.5 368.9 100.6C366.8 98.8 363.4 96.4 361.4 95.3C359.4 94.3 356.1 92.1 353.9 90.5C351.8 88.8 348.3 86.6 346.2 85.6C344.1 84.5 341.9 82.8 341.4 81.8C340.9 80.8 340 80 339.6 80C338.3 80 329.2 73.8999 324.7 70.1C319.9 66 308.9 58.3999 305 56.6C303.4 55.8 300 53.3 297.5 51C295 48.8 291 45.8 288.5 44.3999C282.3 41 272.9 34.3999 266.6 29C263.7 26.5 259.5 23.3 257.2 21.8C249 16.3999 240.4 10.3999 235.6 6.69995C230.6 2.89995 226.5 1.89995 226.5 4.39995Z" fill="#C9A96E"/>
<path d="M531.9 187.6C528.6 191.3 520 200.3 512.8 207.6C505.5 215 499.5 221.7 499.5 222.5C499.5 225.1 502.3 229.8 504.2 230.4C505.8 230.9 514.6 239.7 531.8 257.8C537 263.2 538.2 264 541.4 264C544.4 264 545.8 263.2 549.2 259.7C551.4 257.4 553.5 254.7 553.8 253.8C554.1 252.9 558.6 248.7 563.7 244.5C578.7 232 581.3 229.8 583.5 226.8L585.6 223.9L583.3 220.2C582.1 218.2 579.7 215.4 578 214C576.4 212.6 568.3 204.6 560.1 196.2C546.2 182 545 181 541.5 181C538.2 181 537.1 181.7 531.9 187.6Z" fill="#C9A96E"/>
<path d="M2.4 304.2L0 306.5V390.8V475.1L2.5 477.1C4.7 478.7 6.8 479 21.3 479H37.6L39.2 475.3C40.4 472.3 40.7 468.2 40.4 455C40.3 445.1 40.6 436.9 41.3 434.6C42.8 428.9 60.1 412 64.2 412C67.5 412 71.5 414.5 71.5 416.5C71.5 417.3 72.3 418.5 73.3 419.2C74.2 419.9 75.6 421.7 76.4 423.2C77.2 424.7 80.4 428.7 83.6 432.2C86.8 435.7 89.5 438.9 89.5 439.5C89.5 440 91.3 442.4 93.5 444.8C95.7 447.2 97.5 449.7 97.5 450.3C97.5 451 99.3 453.4 101.6 455.5C103.9 457.7 106.7 461.1 108 463C110.9 467.6 117.6 474.8 121.2 477.1C123.7 478.8 126.2 479 144.6 479C171.8 479 172.1 478.7 157.5 464.5C154.1 461.2 150.9 457.6 150.4 456.5C149.9 455.4 147.5 451.8 145 448.5C142.6 445.2 139.3 440.7 137.8 438.5C136.3 436.3 134.3 433.7 133.3 432.7C132.3 431.7 130.4 429.2 129.1 427.2C127.7 425.2 124.4 421.1 121.6 418.3C118.9 415.4 115.4 411.3 113.8 409.3C109.2 403.1 102.1 394.6 100.4 393.3C97.8 391.3 93.9 385.7 93.2 382.8C92.7 381 93 379.6 94 378.6C94.8 377.8 95.5 376.6 95.5 376C95.5 375.4 100.4 369.8 106.4 363.7C131.3 338.2 145 323.8 146.5 321.2C147.5 319.7 151.3 315.5 155 311.7C164.6 302.2 164.3 302 140.1 302C121.7 302 120.8 302.1 117.9 304.2C112.8 308 93.5 327.9 93.5 329.3C93.5 330.1 91.1 332.9 88.3 335.5C74.7 347.8 63.4 359.2 62 362.1C61.1 363.8 58.8 366.5 56.9 368.2C55 369.9 53.5 371.8 53.5 372.4C53.5 373.1 52.2 374.9 50.5 376.5C47 379.9 42 380.3 39.9 377.5C38.2 375.2 38.1 353 39.6 335C41.9 307.7 41.9 308.4 39.5 305L37.4 302H21.1C5.6 302 4.7 302.1 2.4 304.2Z" fill="#C9A96E"/>
<path d="M209.7 303.2C208.8 304.1 208.5 324.8 208.5 390.1V475.9L210.7 477.4C212.5 478.7 216.2 479 229.8 479H246.6L248.1 475.3C249.4 472.3 249.5 470.9 248.6 467.9C247.8 465.4 247.5 442.6 247.5 395.6C247.5 337 247.7 325.8 249.1 319.3C250.6 312.1 250.5 311.4 248.9 307.6C247.9 305.3 246.6 303.2 246 302.8C244.2 301.5 211 301.9 209.7 303.2Z" fill="#C9A96E"/>
<path d="M313.5 303.5C312.7 304.4 312.4 307.1 312.6 310.3C312.7 313.1 312.8 348.7 312.7 389.4C312.5 452.6 312.2 463.5 311 465.3C308.7 468.6 309.2 473 312.2 476.2L314.9 479H332C344 479 349.5 478.6 350.3 477.8C351.2 476.9 351.5 468.7 351.5 447.3V417.9L354.2 415.4C356.7 413.1 357.5 412.9 362 413.5C368.1 414.3 385.9 414.6 405.5 414.1C413.5 413.9 422.3 414 425 414.4C429.3 415 430.3 414.8 432.3 413C434.3 411.1 434.5 410.1 434.5 398.5C434.5 384.5 433.9 383 427.7 383C425.7 383 408.7 383 390 383C361.9 383 355.6 382.8 354 381.6C352.1 380.3 352 378.7 351.7 359.9C351.5 348.7 351.6 338.6 351.9 337.3C352.8 333.9 358.8 332.4 366.2 333.9C372.4 335.1 442.4 334.8 444.4 333.5C445.1 333.1 445.5 327.9 445.5 319.4C445.5 307.3 445.3 305.8 443.5 304C441.5 302 440.2 302 378.1 302C322.8 302 314.6 302.2 313.5 303.5Z" fill="#C9A96E"/>
<path d="M497.7 303.2C496.8 304.1 496.5 323.2 496.5 383.2C496.5 437.2 496.2 463.3 495.4 466.2C494 471.5 496.2 477.6 499.8 478.5C501 478.8 509.4 478.9 518.5 478.8L535 478.5L535.3 455C535.5 434.3 535.7 431.3 537.2 430.2C538.4 429.4 543.7 429 555.2 429H571.4L575 432.1C578.4 435.1 579.9 437.3 583 443.7C583.8 445.5 584.9 447 585.4 447C585.9 447 586.5 448 586.9 449.2C587.2 450.5 588.7 452.8 590.2 454.5C593.6 458.1 597.5 463.8 597.5 465C597.5 465.6 598 466 598.6 466C599.1 466 600.2 467.5 601 469.4C602.6 473.1 607.5 477.7 610.8 478.5C612 478.8 621.3 478.9 631.5 478.8C649.4 478.5 650 478.4 650.3 476.4C650.5 475 649.1 473 645.8 469.9C641.1 465.7 632.5 453.6 632.5 451.4C632.5 450.7 631.8 450 631 449.6C630.2 449.3 629.5 448.3 629.5 447.4C629.5 445.8 625.9 441.5 619.4 435.3C615.1 431.3 612.7 424.4 614.4 421.2C615.7 418.8 621.7 413.9 626.4 411.5C630.8 409.3 639.5 401.1 639.5 399.3C639.5 398.5 640.4 396.7 641.5 395.3C642.6 393.9 643.5 392.1 643.5 391.3C643.5 390.6 644.3 388.8 645.2 387.4C647.7 383.6 647.8 349 645.4 343.9C644.4 342 642.5 337.9 641 334.8C637.8 328 625.5 315.8 619 312.9C616.5 311.8 614.3 310.5 614 310C613.7 309.4 612.3 309 611.1 309C609.8 309 608.2 308.3 607.5 307.5C606.8 306.7 605 306 603.4 306C601.8 306 598.8 305.1 596.8 304C593.2 302.1 591.1 302 546 302C510.7 302 498.6 302.3 497.7 303.2ZM586 336.6C595 340.2 600.7 343.3 601.6 345.4C602.1 346.5 602.9 348.2 603.4 349C609 358.1 610.1 367.8 606.5 375C605.4 377.2 604.5 379.4 604.5 380.1C604.5 383.1 591.7 393 587.8 393C586.8 393 585 393.7 583.9 394.5C582.4 395.7 577.8 395.9 560.4 396C540.8 396 538.7 395.8 537.2 394.2C535.7 392.6 535.5 388.9 535.6 364.2V336L538.3 335.4C539.8 335.1 541.3 334.8 541.7 334.7C542.1 334.6 551.4 334.6 562.2 334.8C577.3 335 582.9 335.4 586 336.6Z" fill="#C9A96E"/>
<path d="M755 305.7C753.6 307.8 752.5 310.4 752.5 311.6C752.5 312.8 751.9 314.3 751.1 314.9C750.3 315.6 749.4 317.9 749 320C748.6 322.1 747.7 324.4 746.9 325.1C746.1 325.7 745.5 327 745.5 328C745.5 328.9 744.6 330.7 743.5 332C742.4 333.3 741.5 335.3 741.5 336.5C741.5 337.8 740.8 339.3 740 340C739.2 340.7 738.2 343 737.9 345.1C737.5 347.2 736.6 349.1 735.9 349.4C735.1 349.7 734.5 350.9 734.5 352C734.5 353.1 732.9 357 731 360.7C729.1 364.4 727.5 368.2 727.5 369.1C727.5 370 726.6 371.7 725.5 373C724.4 374.3 723.5 376.3 723.5 377.5C723.5 378.6 722.8 380.5 722 381.6C721.2 382.6 720.5 384.2 720.5 385.1C720.5 386 719.6 387.9 718.5 389.3C717.4 390.7 716.5 392.5 716.5 393.3C716.5 394.1 715.9 395.3 715.1 395.9C714.3 396.6 713.3 398.6 712.9 400.3C712.6 402.1 711.6 404.4 710.9 405.5C710.1 406.6 709.5 408.2 709.5 409.2C709.5 410.2 708.6 411.8 707.5 412.7C706.4 413.7 705.5 415.4 705.5 416.5C705.5 417.6 704.6 419.8 703.5 421.5C702.4 423.1 701.5 425.5 701.5 426.6C701.5 427.8 700.8 429 700 429.4C699.2 429.7 698.5 431.1 698.5 432.6C698.5 434 697.6 436.3 696.5 437.7C695.4 439.1 694.5 441.6 694.5 443.2C694.5 444.8 693.9 446.3 693 446.6C692.2 447 691.5 448.4 691.5 450C691.5 451.5 690.8 453.3 690 454C689.2 454.6 688.3 456.1 687.9 457.2C687.6 458.3 685.8 461.9 683.9 465.1C680.4 471 679.6 475.7 681.7 477.8C682.5 478.6 688.2 479 700.6 479H718.4L720.4 476.4C721.6 474.9 722.5 473 722.5 472.1C722.5 471.1 723.2 469.5 724 468.4C724.8 467.4 725.5 465.8 725.5 465C725.5 464.2 726.4 461.8 727.5 459.7C728.6 457.7 729.5 455.1 729.5 453.9C729.5 452.8 730.4 450.7 731.5 449.3C732.6 447.9 733.5 446.1 733.5 445.3C733.5 444.6 735.6 443 738.3 441.9C742.7 440 744.4 439.9 764.5 440.4C776.3 440.7 789.1 441.2 792.8 441.6C797.4 442 800.1 441.8 801 441C801.8 440.3 805 439.8 808.2 439.7C812.9 439.6 814.6 440 817.3 442C819 443.3 820.5 444.9 820.5 445.6C820.5 446.2 821.4 447.9 822.5 449.3C823.6 450.7 824.5 453.3 824.5 455.3C824.5 457.2 825.2 459.3 826 460C826.8 460.7 827.7 462.7 828.1 464.6C828.4 466.4 829.3 468.4 830.1 469.1C830.9 469.7 831.5 471.1 831.5 472.2C831.5 473.2 832.7 475.2 834.1 476.5C836.7 479 837.1 479 854.4 479C866.8 479 872.5 478.6 873.3 477.8C875.1 476 874.8 473.2 872.5 470.3C871.4 468.9 870.5 467.2 870.5 466.5C870.5 465.8 869.9 464.7 869.1 464.1C868.3 463.4 867.4 461.3 867 459.2C866.6 457.2 865.8 454.8 865 454C864.3 453.2 863.5 450.9 863.1 448.9C862.7 446.8 861.8 444.7 861 444C860.2 443.3 859.5 441.9 859.5 440.8C859.5 439.7 858.6 437.7 857.5 436.3C856.4 434.9 855.5 433 855.5 432.1C855.5 431.2 854.8 429.6 854 428.6C853.2 427.5 852.5 425.6 852.5 424.5C852.5 423.3 851.6 421.3 850.5 420C849.4 418.7 848.5 416.9 848.5 415.8C848.5 414.3 843.7 403.7 840.4 398C839.9 397.2 839.2 395.8 838.9 395C838.6 394.2 837.5 391.8 836.5 389.8C835.4 387.8 834.5 385.4 834.5 384.5C834.5 383.1 832.5 378.8 829.3 373C828.9 372.2 828.2 370.8 827.9 370C827.6 369.2 826.5 366.8 825.5 364.8C824.4 362.8 823.5 360.4 823.5 359.5C823.5 358.6 822.6 356.7 821.5 355.3C820.4 353.9 819.5 351.7 819.5 350.5C819.5 349.3 818.8 347.7 818 347C817.2 346.3 816.5 345 816.5 344C816.5 343.1 815.6 341.1 814.5 339.7C813.4 338.3 812.5 336.2 812.5 335.1C812.5 333.9 811.8 332.7 811 332.4C810.2 332 809.5 330.7 809.5 329.5C809.5 328.2 808.8 326.5 808 325.6C807.2 324.8 806.2 322.6 805.8 320.8C805.5 319 804.7 316.8 804 316C803.3 315.2 802.4 313.1 802.1 311.4C801.7 309.7 800.1 306.9 798.5 305.2L795.6 302H776.6H757.6L755 305.7ZM782 352.5C783.4 354.2 784.5 356.7 784.5 357.9C784.5 359.2 785.4 361.3 786.5 362.7C787.6 364.1 788.5 366.5 788.5 368.1C788.5 369.6 789.1 371.5 789.9 372.3C790.7 373.1 791.7 375.3 792 377.3C792.4 379.3 793.3 381.4 794.1 382.1C794.9 382.7 795.5 384.2 795.5 385.5C795.5 386.7 796.4 388.5 797.5 389.5C798.6 390.5 799.5 392.3 799.5 393.5C799.5 394.8 800.2 396.3 801 397C802.8 398.5 803 407.1 801.3 408.8C800.4 409.7 793.6 410 776.9 410C756.9 410 753.6 409.8 752.4 408.4C750.9 406.6 750.9 399.5 752.3 397.7C754.4 395.2 758.5 387 758.5 385.6C758.5 384.7 759.4 382.3 760.5 380.3C761.6 378.2 762.5 376 762.5 375.4C762.5 374.8 763.2 373.7 764 373C764.8 372.3 765.5 370.6 765.5 369.1C765.5 367.7 766.4 365 767.5 363.2C768.6 361.4 769.5 359.2 769.5 358.3C769.5 356.6 773.3 349.9 774.8 348.9C776.5 347.7 779.6 349.2 782 352.5Z" fill="#C9A96E"/>
<path d="M916.8 303.9C914.8 305.8 914.8 306.5 914.7 390.4L914.6 475L916.7 477C918.7 478.8 920.2 479 935.5 479C951.6 479 952.2 478.9 954.3 476.7C956.5 474.4 956.5 474.2 956.5 427.4C956.5 401.6 956.9 379.9 957.4 379.1C959.2 376.3 965 379.8 969.2 386.3C970.5 388.4 973.4 392 975.7 394.3C977.9 396.6 980.8 400.1 982.1 402C983.3 403.9 985.8 407 987.4 408.9C989.1 410.7 990.5 412.5 990.5 412.9C990.5 413.2 993.6 416.6 997.3 420.5C1001 424.3 1005.2 429.3 1006.7 431.5C1008.1 433.7 1011.4 437.7 1013.9 440.5C1016.4 443.2 1018.5 445.9 1018.5 446.5C1018.5 447 1020.3 449.4 1022.5 451.8C1024.7 454.2 1026.5 456.4 1026.5 456.8C1026.5 457.2 1029 460.2 1032 463.5C1035 466.8 1037.5 470 1037.5 470.6C1037.5 472.4 1042.3 476.3 1046.3 477.7C1048.6 478.5 1054.9 479 1062.6 479C1073.5 479 1075.4 478.8 1076.8 477.2C1078.4 475.5 1078.5 468 1078.5 390.2C1078.5 314.2 1078.3 305 1076.9 303.6C1075.6 302.3 1072.5 302 1059 302C1043.3 302 1042.5 302.1 1040.5 304.2C1037.7 307.2 1037.1 310.3 1038.4 314.1C1039.2 316.4 1039.2 324.7 1038.3 344.6C1037.2 369.8 1037.3 372.6 1038.9 379.5C1040 384.1 1040.4 388.2 1040 390.2C1038.8 395.5 1035.7 402 1034.2 402C1032.3 402 1026.1 395.9 1021.9 389.8C1019.9 386.9 1017.3 383.5 1016.1 382.4C1015 381.2 1013.3 379.2 1012.5 377.9C1011.7 376.7 1008.4 372.8 1005.3 369.3C1002.1 365.9 999.5 362.7 999.5 362.2C999.5 361.7 997.4 359 994.8 356.3C989.9 351.1 985.5 345.5 985.5 344.5C985.5 344.2 983.9 342.5 982 340.7C980.1 339 978.5 337 978.5 336.5C978.5 335.9 975.8 332.4 972.5 328.7C969.2 324.9 966.5 321.5 966.5 321.1C966.5 320.6 962.4 316.1 957.5 311.1L948.5 302H933.7C920.5 302 918.7 302.2 916.8 303.9Z" fill="#C9A96E"/>
<path d="M563 57.5L542.5 73L563 90L580.5 70.5L563 57.5Z" fill="#C9A96E"/>
</svg>
